<?xml version="1.0" encoding="UTF-8" standalone="no"?>
<svg
   width="273"
   height="110"
   version="1.1"
   id="svg1"
   sodipodi:docname="correctlogo.svg"
   inkscape:version="1.3.2 (091e20e, 2023-11-25, custom)"
   inkscape:export-filename="correctlogo.png"
   inkscape:export-xdpi="436.36365"
   inkscape:export-ydpi="436.36365"
   xml:space="preserve"
   xmlns:inkscape="http://www.inkscape.org/namespaces/inkscape"
   xmlns:sodipodi="http://sodipodi.sourceforge.net/DTD/sodipodi-0.dtd"
   xmlns:xlink="http://www.w3.org/1999/xlink"
   xmlns="http://www.w3.org/2000/svg"
   xmlns:svg="http://www.w3.org/2000/svg"><defs
     id="defs1"><linearGradient
       id="linearGradient4"
       inkscape:collect="always"><stop
         style="stop-color:#f8dbb9;stop-opacity:1;"
         offset="0"
         id="stop4" /><stop
         style="stop-color:#af9479;stop-opacity:1;"
         offset="1"
         id="stop5" /></linearGradient><linearGradient
       id="linearGradient1"
       inkscape:collect="always"><stop
         style="stop-color:#f8dbb9;stop-opacity:1;"
         offset="0"
         id="stop1" /><stop
         style="stop-color:#af9479;stop-opacity:1;"
         offset="1"
         id="stop2" /></linearGradient><linearGradient
       inkscape:collect="always"
       xlink:href="#linearGradient1"
       id="linearGradient2"
       x1="29.168154"
       y1="57.982758"
       x2="22.45064"
       y2="69.826797"
       gradientUnits="userSpaceOnUse" /><linearGradient
       inkscape:collect="always"
       xlink:href="#linearGradient4"
       id="linearGradient5"
       x1="52.524887"
       y1="84.440437"
       x2="46.906487"
       y2="90.765953"
       gradientUnits="userSpaceOnUse" /></defs><sodipodi:namedview
     id="namedview1"
     pagecolor="#505050"
     bordercolor="#ffffff"
     borderopacity="1"
     inkscape:showpageshadow="0"
     inkscape:pageopacity="0"
     inkscape:pagecheckerboard="1"
     inkscape:deskcolor="#505050"
     inkscape:zoom="22.627418"
     inkscape:cx="258.75688"
     inkscape:cy="61.363609"
     inkscape:window-width="1920"
     inkscape:window-height="1094"
     inkscape:window-x="-11"
     inkscape:window-y="-11"
     inkscape:window-maximized="1"
     inkscape:current-layer="svg1"
     inkscape:export-bgcolor="#ffffff00" /><circle
     cx="56.140999"
     cy="56.140999"
     fill="#00a8a9"
     id="circle2"
     style="fill:#42929d;fill-opacity:1;stroke-width:1.01923;stroke-linecap:round;stroke-linejoin:round"
     r="53" /><circle
     cx="52.900002"
     cy="53"
     fill="#00a8a9"
     id="circle1"
     style="stroke-width:1.01923;fill:#2e636d;fill-opacity:1;stroke-linecap:round;stroke-linejoin:round"
     r="53" /><text
     style="font-size:30.7663px;font-family:serif;-inkscape-font-specification:serif;fill:#ffffff;stroke-width:0.576868;stroke-linecap:round;stroke-linejoin:round"
     x="39.28339"
     y="49.358746"
     id="text5"
     transform="rotate(-5.6307704)"><tspan
       style="font-style:normal;font-variant:normal;font-weight:normal;font-stretch:normal;font-size:30.7663px;font-family:'Comic Sans MS';-inkscape-font-specification:'Comic Sans MS, Normal';font-variant-ligatures:normal;font-variant-caps:normal;font-variant-numeric:normal;font-variant-east-asian:normal;stroke-width:0.576868;stroke-linecap:round;stroke-linejoin:round"
       id="tspan1">106</tspan></text><path
     style="fill:#504031;fill-opacity:1;stroke:#ffffff;stroke-width:2;stroke-linecap:round;stroke-linejoin:round;stroke-dasharray:none;stroke-opacity:1"
     d="m 6.7946742,52.118775 c 1.3627819,-2.27049 1.6670101,-5.298395 3.8197868,-7.041029 2.548429,-2.079294 4.002819,-1.344366 4.701426,-3.434759 1.079562,-3.201543 4.373359,-3.584126 7.06938,-4.785318 4.322861,-2.377742 10.234722,-0.547158 14.150504,2.091397 6.795063,5.524071 2.761027,9.997208 13.413813,17.73459 4.542134,3.112359 23.126323,5.563679 24.489159,5.548726 3.088609,0.347029 6.405605,-0.570353 8.921437,-2.345871 3.390402,-2.958577 11.453912,-8.615577 13.597522,-8.335092 1.922188,-0.01337 4.710958,1.648507 3.917778,4.031129 -2.055312,7.573855 -15.893706,15.54724 -17.828065,24.185889 -1.678956,3.882048 4.530606,7.858509 0.132142,15.063885 -1.747424,1.884789 -2.845507,5.257508 -5.841065,5.275438 C 71.5903,95.523931 69.086163,97.213067 63.228461,96.28566 56.019091,95.84259 49.564929,93.510392 43.407337,89.916836 35.612824,79.799486 17.88515,89.144043 23.470411,80.248075 24.915671,75.627033 27.833041,67.042953 22.13326,63.945408 19.654258,62.663657 16.943768,61.506824 14.146504,61.950011 11.514911,62.259826 9.7563771,60.11678 8.4570955,58.217196 7.5865644,56.293493 5.5573526,54.144016 6.8890354,51.952054"
     id="path1-8"
     sodipodi:nodetypes="cccccccccccccccccccc" /><path
     style="fill:#504031;fill-opacity:1;stroke:#ffffff;stroke-width:2;stroke-linecap:round;stroke-linejoin:round;stroke-opacity:1"
     d="m 40.434765,86.654848 c -0.953166,-3.489229 -5.428152,-8.031449 -3.018787,-13.306742 0.893953,-2.906188 2.99649,-5.289351 5.836098,-6.366936 4.620883,-3.269653 7.561781,-3.338162 9.561762,3.67129 1.057728,2.271553 -2.081936,9.191796 -4.261617,10.363659 -3.153191,2.316189 -4.407128,5.782063 -3.595731,9.590606"
     id="path2"
     sodipodi:nodetypes="cccccc" /><path
     style="fill:#504031;fill-opacity:1;stroke:#ffffff;stroke-width:2;stroke-linecap:round;stroke-linejoin:round;stroke-opacity:1"
     d="m 8.660259,55.959706 c -2.2691368,3.098599 2.564998,-2.575662 3.725531,-1.911492 4.03631,5.149945 15.145375,-6.001379 22.150142,-1.772236 4.104343,3.386375 -5.173522,9.59677 3.849082,18.637695"
     id="path3"
     sodipodi:nodetypes="cccc" /><path
     style="fill:#504031;fill-opacity:1;stroke:#ffffff;stroke-width:2;stroke-linecap:round;stroke-linejoin:round;stroke-opacity:1"
     d="m 49.819073,80.698484 c 0.232083,0.511523 18.64581,10.58622 17.745601,15.959635"
     id="path4"
     sodipodi:nodetypes="cc" /><ellipse
     style="fill:#ffffff;fill-opacity:1;stroke:none;stroke-width:1.91485;stroke-opacity:1;stroke-linecap:round;stroke-linejoin:round"
     id="path1"
     cx="23.224039"
     cy="43.796425"
     rx="2.6737475"
     ry="3.314563" /><ellipse
     style="fill:#504031;fill-opacity:1;stroke:none;stroke-width:3.10482;stroke-opacity:1;stroke-linecap:round;stroke-linejoin:round"
     id="path5"
     cx="22.619982"
     cy="43.989887"
     rx="1.073567"
     ry="1.3926159" /><path
     style="fill:#eff2c4;fill-opacity:1;stroke-width:0.25;stroke-linecap:round;stroke-linejoin:round"
     d="M 37.25,84.667123 C 35.124659,84.023671 33.678293,83.862305 29,83.746698 c -4.03485,-0.09971 -5.587007,-0.23297 -5.748026,-0.493505 -0.103153,-0.166904 0.265152,-1.069272 0.73835,-1.808999 0.724625,-1.132771 1.999514,-5.596974 2.382444,-8.342461 C 27.080124,68.030201 25.822801,64.770711 22.4375,62.899918 21.287664,62.264493 19.375979,61.502196 18.091812,61.167045 17.049008,60.894888 16.580056,60.84683 14.8125,60.830987 12.463024,60.809928 12.256497,60.749882 11.168246,59.771451 10.472196,59.145641 9.3125,57.681134 9.3125,57.427944 c 0,-0.166958 1.843679,-1.802039 2.318432,-2.056118 0.235783,-0.126188 0.366183,-0.08498 0.946268,0.298996 0.948296,0.627714 2.028465,0.879911 3.365504,0.785775 1.548944,-0.109056 3.017304,-0.532251 6.810631,-1.962889 3.807545,-1.436001 5.730014,-1.977886 7.385956,-2.081872 1.943299,-0.122032 3.576439,0.351403 4.140848,1.200399 0.417034,0.627313 0.363861,1.399673 -0.268388,3.898527 -0.640713,2.532305 -0.881103,4.291809 -0.766805,5.61252 0.22449,2.593947 1.296159,4.999642 3.256732,7.310749 0.627258,0.739407 0.646813,0.784467 0.479246,1.104283 -0.09608,0.183382 -0.409664,0.966969 -0.696846,1.741304 L 35.76193,74.6875 35.76053,76.625 c -0.0014,1.903824 0.0066,1.961521 0.461221,3.319544 0.254455,0.760124 0.872121,2.208561 1.37259,3.21875 0.500469,1.010189 0.852736,1.829927 0.782815,1.821644 C 38.307209,84.976653 37.8,84.833636 37.25,84.667123 Z"
     id="path6" /><path
     style="fill:#eff2c4;fill-opacity:1;stroke-width:0.25;stroke-linecap:round;stroke-linejoin:round"
     d="m 63.5625,95.296761 c -2.75118,-0.302648 -5.148239,-0.662335 -6.625,-0.994101 -2.809704,-0.631222 -6.937147,-2.143964 -9.89682,-3.627267 l -1.084321,-0.54343 -0.08731,-0.698805 c -0.195815,-1.56725 0.287323,-3.717247 1.1586,-5.155846 0.451157,-0.744923 1.744513,-2.177052 2.176908,-2.410484 0.154492,-0.0834 0.901414,0.333601 3.051775,1.7038 7.878417,5.020085 12.184308,8.516251 13.691583,11.116872 0.199231,0.34375 0.362766,0.667188 0.363413,0.71875 0.0016,0.129465 -0.904885,0.09336 -2.748828,-0.109489 z"
     id="path7" /><path
     style="fill:#504031;fill-opacity:1;stroke-width:0.25;stroke-linecap:round;stroke-linejoin:round"
     d="m 42.729281,87.641258 c -0.873176,-0.809134 -0.935303,-0.908654 -2.468604,-3.95439 -0.865088,-1.718403 -1.755764,-3.658743 -1.979282,-4.311868 -0.374705,-1.094901 -0.406142,-1.309341 -0.403154,-2.75 0.0032,-1.525441 0.01545,-1.59445 0.518028,-2.909609 0.699834,-1.831346 1.178659,-2.601465 2.353731,-3.785626 0.764365,-0.770278 1.265089,-1.146442 2.125,-1.596388 0.61875,-0.323759 1.626607,-0.89749 2.239682,-1.274958 1.092907,-0.672897 2.407162,-1.183419 3.046519,-1.183419 0.177303,0 0.568226,0.119018 0.86872,0.264485 0.9621,0.465744 1.818765,1.866885 2.589615,4.235515 0.290027,0.891178 0.335268,1.205304 0.280572,1.948137 -0.121519,1.650364 -1.429044,4.850882 -2.651135,6.489363 -0.307671,0.4125 -0.96768,1.063678 -1.466687,1.44706 -2.26733,1.741971 -3.613281,4.214356 -4.052919,7.44483 L 43.625,88.471279 Z"
     id="path11" /><path
     style="fill:url(#linearGradient2);fill-opacity:1;stroke-width:0.25;stroke-linecap:round;stroke-linejoin:round"
     d="m 30.263428,52.063965 c -2.938018,-0.01837 -5.622509,1.385221 -8.362192,2.257035 -2.268083,0.805519 -4.578405,1.820839 -7.050161,1.615044 -1.211768,0.232733 -2.069636,-1.051999 -3.239747,-1.039071 -0.986329,0.553014 -1.8497114,1.370387 -2.5727538,2.23584 -0.2849132,0.829216 0.5933696,1.494063 1.0314938,2.10083 0.865816,0.983563 1.923731,2.028699 3.343262,1.954589 2.244755,0.08358 4.555599,0.162389 6.632376,1.123676 2.276193,0.83588 4.556979,2.209617 5.431589,4.610943 0.752939,2.007069 0.643916,4.176313 0.414273,6.261098 -0.51211,3.223434 -1.432467,6.424846 -2.921353,9.35487 -0.393689,0.595725 0.03433,1.410705 0.76709,1.344237 4.200528,0.496244 8.491923,0.118543 12.629883,0.997804 0.729261,0.08572 1.494237,0.715293 2.203857,0.351563 0.497601,-0.638252 -0.292472,-1.379509 -0.446634,-2.010722 -0.808721,-1.961898 -2.04774,-3.906807 -1.87322,-6.113791 0.04655,-1.265029 -0.228858,-2.593465 0.466314,-3.733014 0.207646,-0.810423 0.927306,-1.606341 0.715113,-2.442278 -1.962638,-2.371407 -3.716184,-5.156417 -3.724278,-8.352245 -0.119711,-2.951154 1.357064,-5.727267 1.1879,-8.673391 -0.459886,-1.308299 -2.035112,-1.882701 -3.328832,-1.838428 -0.434599,-0.0076 -0.869333,-0.0062 -1.30398,-0.0046 z"
     id="path14" /><path
     style="fill:url(#linearGradient5);fill-opacity:1;stroke-width:0.25;stroke-linecap:round;stroke-linejoin:round"
     d="m 49.248047,81.493897 c -0.988252,0.233799 -1.503287,1.268523 -2.156006,1.964355 -1.470998,1.932117 -1.87911,4.517982 -1.564751,6.861737 0.810141,0.662887 1.933959,0.991441 2.889214,1.483234 3.960343,1.747633 8.113669,3.144698 12.437015,3.606735 1.799427,0.189848 3.629259,0.595266 5.438229,0.38057 0.814038,-0.351429 0.12141,-1.261484 -0.213623,-1.708741 -2.681801,-3.642231 -6.56292,-6.129759 -10.228491,-8.671917 -2.043916,-1.305629 -4.010436,-2.768438 -6.175318,-3.86446 -0.137235,-0.04297 -0.282573,-0.0637 -0.426269,-0.05151 z"
     id="path15" /><path
     style="fill:#504031;fill-opacity:1;stroke:none;stroke-width:2;stroke-linecap:round;stroke-linejoin:round;stroke-dasharray:none;stroke-opacity:1"
     d="m 22.705278,83.04261 c 0.09664,-1.121844 1.166005,-2.522048 1.501686,-3.585067 0.61632,-1.734539 0.77038,-3.177891 1.395666,-4.909137 0.791908,-0.01615 1.350234,0.641516 1.902928,1.114878 1.053692,1.015418 1.91916,2.236453 3.143091,3.065506 1.090145,0.915929 1.603112,2.286738 2.133324,3.563683 0.310724,0.621325 0.821629,1.141834 1.003056,1.825841 -0.153086,0.69103 -1.025265,0.408739 -1.527372,0.54112 -2.631287,0.09404 -5.24999,-0.267037 -7.845077,-0.659433 -0.493736,-0.146148 -1.03398,0.0017 -1.446631,-0.40496"
     id="path5-0"
     inkscape:transform-center-x="0.16273642"
     inkscape:transform-center-y="-0.25445747"
     sodipodi:nodetypes="cccccccccc" /><path
     style="fill:none;stroke:#ffffff;stroke-width:2;stroke-linecap:round;stroke-linejoin:round;stroke-dasharray:none;stroke-opacity:1"
     d="m 25.565114,74.695164 c 1.637105,-0.134829 2.371537,1.664544 3.460169,2.55777 1.268755,1.273152 2.850637,2.355149 3.418654,4.1516 0.351107,1.112607 1.168387,2.021487 1.461171,3.140206"
     id="path8" /><path
     style="fill:#000000"
     d="m 123.86259,68.26889 c -6.71612,-1.21154 -11.07658,-6.72353 -10.69772,-13.52286 0.31033,-5.56955 3.49391,-9.70918 8.87616,-11.54174 1.54717,-0.52679 2.29467,-0.63561 4.46882,-0.6506 4.029,-0.0278 7.0023,0.94441 9.29582,3.0395 l 1.14766,1.04837 c -1.08232,1.100892 -2.12305,2.263942 -3.40341,3.12008 -0.18235,0 -0.71405,-0.33585 -1.18156,-0.74632 -3.5993,-3.160232 -8.70932,-1.299441 -9.08329,-1.12406 -5.05485,2.37051 -6.25043,9.61751 -2.24675,13.61877 3.00471,3.00288 8.03146,3.1347 11.55512,0.30301 1.69369,-1.274268 3.17976,1.240203 4.33357,2.41683 l -0.58022,0.63228 c -0.96021,1.04636 -3.29657,2.44018 -4.95411,2.9555 -1.79718,0.55874 -5.65321,0.78981 -7.53009,0.45124 z m 31.01081,-0.203 c -2.9452,-0.96249 -4.37562,-2.75688 -4.37423,-5.48725 0.001,-2.65822 1.27183,-4.26877 4.0545,-5.13972 0.71291,-0.22313 2.56743,-0.41012 4.87612,-0.49167 4.08149,-0.14415 4.12027,-0.16048 3.73091,-1.57061 -0.43899,-1.58991 -2.39683,-2.76239 -4.61782,-2.76546 -1.2042,-0.002 -3.39463,0.56087 -4.62182,1.18693 l -0.93786,0.47847 c -0.87299,-1.855514 -2.43134,-3.369614 -0.007,-4.49293 2.03802,-0.87673 4.60738,-1.28302 7.23779,-1.1445 3.06957,0.16164 4.79199,0.7888 6.29545,2.29226 1.86604,1.86604 1.9734,2.39846 2.07517,10.29094 l 0.0881,6.83235 -4.89843,-0.1356 -0.0737,-0.89007 c -0.0837,-1.01137 -0.45763,-1.13982 -1.13565,-0.39011 -0.97791,1.08131 -2.21264,1.48807 -4.72448,1.55638 -1.30544,0.0355 -2.64054,-0.0227 -2.9669,-0.12936 z m 6.05247,-3.56372 c 1.42783,-0.66106 2.28793,-1.69978 2.42666,-2.9306 0.0902,-0.80059 0.0175,-1.14321 -0.31275,-1.47347 -0.37829,-0.37829 -0.73523,-0.41588 -2.95153,-0.31083 -2.60988,0.1237 -3.38331,0.35429 -4.08215,1.21702 -0.51959,0.64144 -0.53676,2.015 -0.0342,2.73256 0.84138,1.20124 3.21904,1.56855 4.95394,0.76532 z m 16.03755,3.52763 c -1.66049,-0.34632 -3.99027,-1.17535 -4.27829,-1.5224 -0.34388,-0.41434 1.15579,-3.59339 1.6656,-3.53081 0.18785,0.0231 1.14261,0.33855 2.12169,0.70109 1.50193,0.55615 2.15756,0.66088 4.19513,0.67013 2.09531,0.01 2.50376,-0.0552 3.08557,-0.48889 0.73134,-0.54515 0.90636,-1.01874 0.69205,-1.87263 -0.18268,-0.72786 -1.3792,-1.15662 -4.96481,-1.77909 -5.31209,-0.92218 -6.80039,-2.32814 -6.52307,-6.16216 0.23044,-3.1857 3.09264,-5.16833 7.81365,-5.41248 3.1256,-0.16163 7.64492,0.6694 7.94895,1.46169 0.1571,0.40937 -1.27893,3.46504 -1.62834,3.4649 -0.16188,-7e-5 -0.86116,-0.21556 -1.55395,-0.47888 -0.69279,-0.26331 -2.02789,-0.54267 -2.96689,-0.6208 -2.91156,-0.24225 -4.77682,0.61164 -4.62826,2.11874 0.10435,1.05869 1.12015,1.55468 4.26779,2.08386 3.36188,0.56519 4.77772,1.03891 5.80753,1.94309 1.18334,1.03899 1.59131,1.96692 1.59044,3.61745 -0.001,2.5013 -1.39608,4.32518 -4.11642,5.38295 -1.04621,0.40681 -1.91817,0.52111 -4.39101,0.57561 -1.69707,0.0374 -3.55888,-0.0307 -4.13736,-0.15137 z m 19.00464,-0.10676 c -1.84527,-0.41675 -3.50355,-1.03424 -3.82831,-1.42555 -0.37003,-0.44586 1.14582,-3.75675 1.64266,-3.58786 0.20499,0.0697 1.17378,0.4186 2.15286,0.77536 1.48761,0.54206 2.17698,0.65071 4.19513,0.66122 2.09681,0.0109 2.50334,-0.0533 3.08557,-0.48729 0.73135,-0.54515 0.90637,-1.01874 0.69205,-1.87263 -0.17949,-0.71515 -1.44528,-1.18786 -4.42003,-1.65069 -2.94153,-0.45765 -4.50613,-0.9767 -5.55817,-1.84387 -1.24124,-1.02314 -1.64102,-1.94083 -1.64723,-3.78125 -0.005,-1.34334 0.10039,-1.74974 0.70477,-2.72955 0.7405,-1.20048 2.50286,-2.46139 4.13141,-2.95589 1.57208,-0.47735 5.4692,-0.53986 7.53689,-0.12089 2.1256,0.4307 3.6219,0.98052 3.6219,1.33088 0,0.45197 -1.53091,3.32423 -1.77174,3.32412 -0.13516,-7e-5 -0.81257,-0.21556 -1.50536,-0.47888 -0.69279,-0.26331 -2.0279,-0.54267 -2.9669,-0.6208 -2.8478,-0.23694 -4.67418,0.54939 -4.67418,2.01242 0,1.21633 0.90178,1.65161 4.74704,2.29137 2.99141,0.4977 4.22069,0.91928 5.31808,1.82385 1.14074,0.94029 1.56512,1.93585 1.56512,3.67161 0,2.55104 -1.54557,4.46693 -4.38598,5.43691 -1.63537,0.55846 -6.59183,0.68898 -8.63558,0.22741 z m 48.94328,0.11469 c -1.50864,-0.31351 -2.77581,-1.05763 -3.8188,-2.24253 -2.35303,-2.67319 -2.06529,-7.2884 0.6007,-9.6351 2.56689,-2.25947 6.44283,-2.16534 8.82242,0.21426 1.21018,1.21017 1.90935,2.80224 1.90935,4.34774 v 0.90713 h -5.58522 c -6.18632,0 -6.00346,-0.05 -5.70166,1.55874 0.20497,1.09261 1.62776,2.66371 2.93957,3.24599 1.79656,0.79744 4.43878,0.53733 6.0534,-0.59594 0.61651,-0.43271 0.7048,-0.44052 1.05221,-0.0931 0.34741,0.34741 0.34429,0.41785 -0.0372,0.83938 -1.02175,1.12902 -4.21441,1.87329 -6.23478,1.45345 z m 6.02239,-8.32466 c -0.28737,-2.14256 -2.58231,-4.01764 -4.91722,-4.01764 -3.88372,0 -4.82124,3.301901 -5.04689,4.98439 h 10.09378 z m 11.43569,8.34724 c -0.93811,-0.19071 -2.80309,-1.20571 -3.28721,-1.78904 -0.59089,-0.71198 -0.96076,-0.43705 -0.96076,0.71414 0.094,1.165943 -0.41016,1.034263 -1.30543,0.93365 v -18.7508 l 1.30543,-0.1502 c 0.0516,2.532686 -0.13063,5.092876 0.21918,7.60492 0.16929,0.26742 0.4154,0.15967 1.23209,-0.53938 2.60427,-2.22916 6.4084,-2.05624 8.8628,0.40285 1.43072,1.43346 1.92024,2.76487 1.89084,5.14279 -0.0211,1.70667 -0.5615,3.19104 -1.61574,4.43822 -1.25395,1.48341 -4.2362,2.4207 -6.34084,1.99285 z m 3.46597,-1.62595 c 1.00253,-0.49227 1.98894,-1.45871 2.48184,-2.43161 1.38186,-2.72754 0.3605,-6.30345 -2.18197,-7.63937 -1.40393,-0.73769 -3.7055,-0.73769 -5.10943,0 -2.5632,1.34681 -3.5616,4.90112 -2.16003,7.68965 1.27252,2.53176 4.45133,3.61788 6.96959,2.38133 z m -125.09111,1.31475 c -0.14184,-8.722799 -0.0349,-17.451578 0.007,-26.17611 h 5.22174 v 26.34605 c -1.74261,0.01522 -3.5813,0.257071 -5.22842,-0.16995 z m 76.67276,0.006 c -0.65319,-1.79154 -5.81655,-17.34583 -5.81655,-17.52195 0.36869,-0.316637 0.90192,-0.232689 1.38459,-0.23454 1.85363,5.07198 3.1741,10.365334 5.30095,15.33373 0.13146,0.0812 0.33118,0.0556 0.44382,-0.0571 0.17697,-0.177 4.50889,-12.3382 5.37329,-15.15798 l 0.72849,-0.0727 c 1.79308,-0.178912 5.38549,15.538917 6.41274,15.3336 0.23221,-0.0464 1.23986,-2.67467 2.96167,-7.72494 2.42142,-7.10231 2.6495,-7.6546 3.1611,-7.6546 0.30326,0 0.59964,0.0801 0.65862,0.17801 -1.77741,5.968779 -3.87997,11.846871 -5.89433,17.74206 -0.57536,0.04796 -1.1507,0.09603 -1.72605,0.1441 l -0.70186,-1.97087 c -1.15667,-3.247957 -4.33904,-12.808552 -4.61095,-13.11454 -0.12522,-0.14092 -0.30109,-0.12477 -0.46892,0.0431 -0.18126,0.181268 -0.50946,0.964687 -5.33165,14.89824 -0.69477,0.153419 -1.2843,0.05363 -1.87496,-0.16355 z"
     id="path9"
     sodipodi:nodetypes="ssssscsscsscsssccssscscsssscccssccscssscsscscscsssssssssssscsscssssssssscsssssssssssssssssscssssssssssccscsscccsssssccssssssscccsssscsscsssssccssscss" /></svg>
